<svg width="24" height="24" viewBox="0 0 24 24" fill="none" xmlns="http://www.w3.org/2000/svg">
<g clip-path="url(#clip0_31_461)">
<path d="M7.5 12.6442L15.9619 20.0626C16.0593 20.1486 16.1775 20.2078 16.3047 20.2344C16.432 20.2609 16.5639 20.254 16.6877 20.2142C16.8114 20.1744 16.9227 20.1031 17.0106 20.0074C17.0985 19.9116 17.16 19.7946 17.1891 19.6679L21 3.1145C21.0037 3.0979 21.0029 3.0806 20.9975 3.06445C20.9921 3.04831 20.9825 3.03393 20.9696 3.02285C20.9567 3.01177 20.941 3.00442 20.9242 3.00157C20.9074 2.99872 20.8902 3.00049 20.8744 3.00668L1.875 10.442C1.75705 10.4874 1.65701 10.5698 1.5899 10.6769C1.52278 10.784 1.49221 10.91 1.50278 11.0359C1.51334 11.1618 1.56447 11.281 1.64849 11.3754C1.73251 11.4698 1.84489 11.5344 1.96875 11.5595L7.5 12.6442Z" stroke="#22B4F4" stroke-width="1.5" stroke-linecap="round" stroke-linejoin="round"/>
<path d="M7.5 12.6442L20.9447 3.00854" stroke="#22B4F4" stroke-width="1.5" stroke-linecap="round" stroke-linejoin="round"/>
<path d="M11.6597 16.2919L8.79 19.2694C8.68631 19.3769 8.55285 19.4511 8.40673 19.4823C8.26061 19.5135 8.10849 19.5004 7.96989 19.4446C7.83128 19.3888 7.7125 19.2929 7.62878 19.1691C7.54507 19.0453 7.50022 18.8994 7.5 18.75V12.644" stroke="#22B4F4" stroke-width="1.5" stroke-linecap="round" stroke-linejoin="round"/>
</g>
<defs>
<clipPath id="clip0_31_461">
<rect width="24" height="24" fill="white"/>
</clipPath>
</defs>
</svg>
