<svg width="84" height="84" viewBox="0 0 84 84" fill="none" xmlns="http://www.w3.org/2000/svg">
<g clip-path="url(#clip0_82_142)">
<path d="M65.625 49.875L52.5 63L31.5 57.75L13.125 44.625" stroke="#0A090C" stroke-width="5.25" stroke-linecap="round" stroke-linejoin="round"/>
<path d="M23.8481 23.1755L42 18.375L60.1519 23.1755" stroke="#0A090C" stroke-width="5.25" stroke-linecap="round" stroke-linejoin="round"/>
<path d="M11.2777 19.8254L2.90394 36.5795C2.59273 37.2018 2.5413 37.9222 2.76095 38.5823C2.9806 39.2425 3.45336 39.7885 4.07534 40.1003L13.125 44.6251L23.8482 23.1756L14.8017 18.654C14.4935 18.4994 14.1577 18.4071 13.8137 18.3823C13.4698 18.3575 13.1243 18.4007 12.797 18.5095C12.4697 18.6183 12.1671 18.7905 11.9064 19.0163C11.6457 19.2421 11.4321 19.517 11.2777 19.8254Z" stroke="#0A090C" stroke-width="5.25" stroke-linecap="round" stroke-linejoin="round"/>
<path d="M70.875 44.6251L79.9247 40.1003C80.5466 39.7885 81.0194 39.2425 81.2391 38.5823C81.4587 37.9222 81.4073 37.2018 81.0961 36.5795L72.7223 19.8254C72.5679 19.517 72.3543 19.2421 72.0936 19.0163C71.8329 18.7905 71.5303 18.6183 71.203 18.5095C70.8758 18.4007 70.5302 18.3575 70.1863 18.3823C69.8423 18.4071 69.5065 18.4994 69.1983 18.654L60.1519 23.1756L70.875 44.6251Z" stroke="#0A090C" stroke-width="5.25" stroke-linecap="round" stroke-linejoin="round"/>
<path d="M60.3748 23.625H47.2498L32.2676 38.1577C31.9891 38.436 31.7768 38.7735 31.6464 39.1451C31.516 39.5166 31.4709 39.9128 31.5143 40.3042C31.5578 40.6955 31.6888 41.0721 31.8976 41.406C32.1064 41.7399 32.3876 42.0225 32.7204 42.233C38.4659 45.9047 46.2654 45.652 52.4998 39.375L65.6248 49.875L70.8748 44.625" stroke="#0A090C" stroke-width="5.25" stroke-linecap="round" stroke-linejoin="round"/>
<path d="M40.7072 70.875L27.0178 67.4527L18.375 61.2773" stroke="#0A090C" stroke-width="5.25" stroke-linecap="round" stroke-linejoin="round"/>
</g>
<defs>
<clipPath id="clip0_82_142">
<rect width="84" height="84" fill="white"/>
</clipPath>
</defs>
</svg>
