<svg width="24" height="24" viewBox="0 0 24 24" fill="none" xmlns="http://www.w3.org/2000/svg">
<path d="M12.0011 1.99951C8.0071 1.99951 4.75781 5.24881 4.75781 9.24271C4.75781 14.1993 11.2398 21.4758 11.5158 21.7831C11.775 22.0718 12.2276 22.0713 12.4864 21.7831C12.7623 21.4758 19.2443 14.1993 19.2443 9.24271C19.2442 5.24881 15.995 1.99951 12.0011 1.99951ZM12.0011 12.887C9.99159 12.887 8.35683 11.2522 8.35683 9.24271C8.35683 7.23326 9.99163 5.59849 12.0011 5.59849C14.0105 5.59849 15.6453 7.2333 15.6453 9.24275C15.6453 11.2522 14.0105 12.887 12.0011 12.887Z" fill="#1F3483"/>
</svg>
