<svg width="84" height="84" viewBox="0 0 84 84" fill="none" xmlns="http://www.w3.org/2000/svg">
<g clip-path="url(#clip0_82_107)">
<path d="M42.0001 62.0453L59.9551 73.0868C60.421 73.3696 60.9602 73.5079 61.5047 73.4843C62.0492 73.4608 62.5744 73.2763 63.0141 72.9543C63.4537 72.6323 63.7881 72.1871 63.9748 71.6751C64.1616 71.1632 64.1924 70.6073 64.0633 70.0778L59.1808 49.4749L75.1605 35.6936C75.5679 35.3359 75.8616 34.8667 76.0054 34.3439C76.1492 33.8211 76.1368 33.2676 75.9696 32.7519C75.8024 32.2361 75.4879 31.7805 75.0648 31.4415C74.6417 31.1024 74.1286 30.8947 73.5887 30.8439L52.6183 29.1377L44.5398 9.58144C44.3339 9.07691 43.9823 8.64515 43.53 8.34123C43.0777 8.03731 42.5451 7.875 42.0001 7.875C41.4552 7.875 40.9226 8.03731 40.4703 8.34123C40.018 8.64515 39.6664 9.07691 39.4605 9.58144L31.382 29.1377L10.4116 30.8439C9.86806 30.8917 9.35069 31.0985 8.92406 31.4385C8.49744 31.7786 8.18048 32.2369 8.01279 32.756C7.8451 33.2752 7.83412 33.8323 7.98121 34.3576C8.1283 34.883 8.42695 35.3534 8.83983 35.71L24.8195 49.4913L19.937 70.0778C19.8079 70.6073 19.8387 71.1632 20.0255 71.6751C20.2122 72.1871 20.5465 72.6323 20.9862 72.9543C21.4259 73.2763 21.9511 73.4608 22.4956 73.4843C23.0401 73.5079 23.5793 73.3696 24.0451 73.0868L42.0001 62.0453Z" stroke="#0A090C" stroke-width="5.25" stroke-linecap="round" stroke-linejoin="round"/>
</g>
<defs>
<clipPath id="clip0_82_107">
<rect width="84" height="84" fill="white"/>
</clipPath>
</defs>
</svg>
