<svg width="84" height="84" viewBox="0 0 84 84" fill="none" xmlns="http://www.w3.org/2000/svg">
<g clip-path="url(#clip0_82_126)">
<path d="M63 39.375C66.0568 39.3727 69.072 40.0833 71.8061 41.4503C74.5402 42.8174 76.9178 44.8032 78.75 47.25" stroke="#99EEFF" stroke-width="5.25" stroke-linecap="round" stroke-linejoin="round"/>
<path d="M5.25 47.25C7.08224 44.8032 9.45984 42.8174 12.1939 41.4503C14.928 40.0833 17.9432 39.3727 21 39.375" stroke="#99EEFF" stroke-width="5.25" stroke-linecap="round" stroke-linejoin="round"/>
<path d="M42 60.375C49.2487 60.375 55.125 54.4987 55.125 47.25C55.125 40.0013 49.2487 34.125 42 34.125C34.7513 34.125 28.875 40.0013 28.875 47.25C28.875 54.4987 34.7513 60.375 42 60.375Z" stroke="#99EEFF" stroke-width="5.25" stroke-linecap="round" stroke-linejoin="round"/>
<path d="M23.625 70.875C25.5094 67.6773 28.1957 65.0266 31.4183 63.1851C34.6409 61.3436 38.2883 60.375 42 60.375C45.7117 60.375 49.3591 61.3436 52.5817 63.1851C55.8043 65.0266 58.4906 67.6773 60.375 70.875" stroke="#99EEFF" stroke-width="5.25" stroke-linecap="round" stroke-linejoin="round"/>
<path d="M52.8281 26.25C53.319 24.3487 54.3332 22.6232 55.7556 21.2694C57.1779 19.9156 58.9514 18.9878 60.8746 18.5913C62.7978 18.1948 64.7936 18.3455 66.6354 19.0264C68.4772 19.7072 70.0912 20.8909 71.2941 22.443C72.4969 23.9951 73.2405 25.8534 73.4402 27.8068C73.64 29.7602 73.288 31.7306 72.4242 33.494C71.5604 35.2574 70.2194 36.7433 68.5535 37.7828C66.8876 38.8224 64.9636 39.374 63 39.375" stroke="#99EEFF" stroke-width="5.25" stroke-linecap="round" stroke-linejoin="round"/>
<path d="M20.9998 39.375C19.0362 39.374 17.1122 38.8224 15.4463 37.7828C13.7805 36.7433 12.4395 35.2574 11.5757 33.494C10.7119 31.7306 10.3598 29.7602 10.5596 27.8068C10.7594 25.8534 11.5029 23.9951 12.7058 22.443C13.9086 20.8909 15.5226 19.7072 17.3644 19.0264C19.2062 18.3455 21.2021 18.1948 23.1253 18.5913C25.0484 18.9878 26.8219 19.9156 28.2443 21.2694C29.6666 22.6232 30.6808 24.3487 31.1717 26.25" stroke="#99EEFF" stroke-width="5.25" stroke-linecap="round" stroke-linejoin="round"/>
</g>
<defs>
<clipPath id="clip0_82_126">
<rect width="84" height="84" fill="white"/>
</clipPath>
</defs>
</svg>
